<?xml version="1.0" encoding="UTF-8" standalone="no"?>
<!-- Generated by fiction v0.4.0 (https://github.com/marcelwa/fiction) -->

<svg
xmlns:dc="http://purl.org/dc/elements/1.1/"
xmlns:cc="http://creativecommons.org/ns#"
xmlns:rdf="http://www.w3.org/1999/02/22-rdf-syntax-ns#"
xmlns:svg="http://www.w3.org/2000/svg"
xmlns="http://www.w3.org/2000/svg"
viewBox="0 0 617.0 379.0"
version="1.1">
<metadata>
<rdf:RDF>
<cc:Work
rdf:about="">
<dc:format>image/svg+xml</dc:format>
<dc:type
rdf:resource="http://purl.org/dc/dcmitype/StillImage" />
<dc:title></dc:title>
</cc:Work>
</rdf:RDF>
</metadata>
<g>
<g
transform="translate(301.0,180.0)">
<g>
<rect
ry="1.4357216"
y="69.390663"
x="186.11467"
height="118.80357"
width="118.80357"
style="fill:#7f7f7f;stroke:#000000;" />
<text
y="179.25412"
x="288.74234"
style="font-style:normal;font-weight:normal;font-size:14.5px;line-height:125%;font-family:'Noto Sans';fill:#ffffff;stroke:none;"
xml:space="preserve"><tspan
y="179.25412"
x="288.74234">3</tspan></text>
</g>
<g>
<g
style="fill:#00c8bc;"
transform="translate(3.5,5.75)">
<rect
style="fill:#00c8bc;stroke:#000000;"
width="20"
height="20"
x="185.86807"
y="112.92032"
ry="1.5" />
<g
style="fill:#00c8bc;"
transform="translate(-0.22642517,-0.09405518)">
<circle
r="2.7314816"
cx="191.0945"
cy="118.01437"
style="opacity:1;fill:#00c8bc;stroke:#000000;" />
<circle
r="2.7314816"
cx="191.0945"
cy="128.01437"
style="opacity:1;fill:#00c8bc;stroke:#000000;" />
<circle
r="2.7314816"
cx="201.0945"
cy="128.01437"
style="opacity:1;fill:#00c8bc;stroke:#000000;" />
<circle
r="2.7314816"
cx="201.0945"
cy="118.01437"
style="opacity:1;fill:#00c8bc;stroke:#000000;" />
</g>
</g><g
style="fill:#00c8bc;"
transform="translate(26.5,5.75)">
<rect
style="fill:#00c8bc;stroke:#000000;"
width="20"
height="20"
x="185.86807"
y="112.92032"
ry="1.5" />
<g
style="fill:#00c8bc;"
transform="translate(-0.22642517,-0.09405518)">
<circle
r="2.7314816"
cx="191.0945"
cy="118.01437"
style="opacity:1;fill:#00c8bc;stroke:#000000;" />
<circle
r="2.7314816"
cx="191.0945"
cy="128.01437"
style="opacity:1;fill:#00c8bc;stroke:#000000;" />
<circle
r="2.7314816"
cx="201.0945"
cy="128.01437"
style="opacity:1;fill:#00c8bc;stroke:#000000;" />
<circle
r="2.7314816"
cx="201.0945"
cy="118.01437"
style="opacity:1;fill:#00c8bc;stroke:#000000;" />
</g>
</g><g
style="fill:#e28686;"
transform="translate(49.5,5.75)">
<rect
style="fill:#e28686;stroke:#000000;"
width="20"
height="20"
x="185.86807"
y="112.92032"
ry="1.5" />
<g
style="fill:#e28686;"
transform="translate(-0.22642517,-0.09405518)">
<circle
r="2.7314816"
cx="191.0945"
cy="118.01437"
style="opacity:1;fill:#e28686;stroke:#000000;" />
<circle
r="2.7314816"
cx="191.0945"
cy="128.01437"
style="opacity:1;fill:#e28686;stroke:#000000;" />
<circle
r="2.7314816"
cx="201.0945"
cy="128.01437"
style="opacity:1;fill:#e28686;stroke:#000000;" />
<circle
r="2.7314816"
cx="201.0945"
cy="118.01437"
style="opacity:1;fill:#e28686;stroke:#000000;" />
</g>
</g>
</g>
</g><g
transform="translate(182.0,180.0)">
<g>
<rect
ry="1.4357216"
y="69.390663"
x="186.11467"
height="118.80357"
width="118.80357"
style="fill:#bfbfbf;stroke:#000000;" />
<text
y="179.25412"
x="288.74234"
style="font-style:normal;font-weight:normal;font-size:14.5px;line-height:125%;font-family:'Noto Sans';fill:#000000;stroke:none;"
xml:space="preserve"><tspan
y="179.25412"
x="288.74234">2</tspan></text>
</g>
<g>
<g
style="fill:#ffa5fa;"
transform="translate(49.5,-40.25)">
<rect
style="fill:#ffa5fa;stroke:#000000;"
width="20"
height="20"
x="185.86807"
y="112.92032"
ry="1.5" />
<g
style="fill:#ffa5fa;"
transform="translate(-0.22642517,-0.09405518)">
<circle
r="2.7314816"
cx="191.0945"
cy="118.01437"
style="opacity:1;fill:#ffa5fa;stroke:#000000;" />
<circle
r="2.7314816"
cx="191.0945"
cy="128.01437"
style="opacity:1;fill:#ffa5fa;stroke:#000000;" />
<circle
r="2.7314816"
cx="201.0945"
cy="128.01437"
style="opacity:1;fill:#ffa5fa;stroke:#000000;" />
<circle
r="2.7314816"
cx="201.0945"
cy="118.01437"
style="opacity:1;fill:#ffa5fa;stroke:#000000;" />
</g>
</g><g
style="fill:#ffa5fa;"
transform="translate(49.5,-17.25)">
<rect
style="fill:#ffa5fa;stroke:#000000;"
width="20"
height="20"
x="185.86807"
y="112.92032"
ry="1.5" />
<g
style="fill:#ffa5fa;"
transform="translate(-0.22642517,-0.09405518)">
<circle
r="2.7314816"
cx="191.0945"
cy="118.01437"
style="opacity:1;fill:#ffa5fa;stroke:#000000;" />
<circle
r="2.7314816"
cx="191.0945"
cy="128.01437"
style="opacity:1;fill:#ffa5fa;stroke:#000000;" />
<circle
r="2.7314816"
cx="201.0945"
cy="128.01437"
style="opacity:1;fill:#ffa5fa;stroke:#000000;" />
<circle
r="2.7314816"
cx="201.0945"
cy="118.01437"
style="opacity:1;fill:#ffa5fa;stroke:#000000;" />
</g>
</g><g
style="fill:#ffa5fa;"
transform="translate(3.5,5.75)">
<rect
style="fill:#ffa5fa;stroke:#000000;"
width="20"
height="20"
x="185.86807"
y="112.92032"
ry="1.5" />
<g
style="fill:#ffa5fa;"
transform="translate(-0.22642517,-0.09405518)">
<circle
r="2.7314816"
cx="191.0945"
cy="118.01437"
style="opacity:1;fill:#ffa5fa;stroke:#000000;" />
<circle
r="2.7314816"
cx="191.0945"
cy="128.01437"
style="opacity:1;fill:#ffa5fa;stroke:#000000;" />
<circle
r="2.7314816"
cx="201.0945"
cy="128.01437"
style="opacity:1;fill:#ffa5fa;stroke:#000000;" />
<circle
r="2.7314816"
cx="201.0945"
cy="118.01437"
style="opacity:1;fill:#ffa5fa;stroke:#000000;" />
</g>
</g><g
style="fill:#ffa5fa;"
transform="translate(26.5,5.75)">
<rect
style="fill:#ffa5fa;stroke:#000000;"
width="20"
height="20"
x="185.86807"
y="112.92032"
ry="1.5" />
<g
style="fill:#ffa5fa;"
transform="translate(-0.22642517,-0.09405518)">
<circle
r="2.7314816"
cx="191.0945"
cy="118.01437"
style="opacity:1;fill:#ffa5fa;stroke:#000000;" />
<circle
r="2.7314816"
cx="191.0945"
cy="128.01437"
style="opacity:1;fill:#ffa5fa;stroke:#000000;" />
<circle
r="2.7314816"
cx="201.0945"
cy="128.01437"
style="opacity:1;fill:#ffa5fa;stroke:#000000;" />
<circle
r="2.7314816"
cx="201.0945"
cy="118.01437"
style="opacity:1;fill:#ffa5fa;stroke:#000000;" />
</g>
</g><g
style="fill:#ffa5fa;"
transform="translate(49.5,5.75)">
<rect
style="fill:#ffa5fa;stroke:#000000;"
width="20"
height="20"
x="185.86807"
y="112.92032"
ry="1.5" />
<g
style="fill:#ffa5fa;"
transform="translate(-0.22642517,-0.09405518)">
<circle
r="2.7314816"
cx="191.0945"
cy="118.01437"
style="opacity:1;fill:#ffa5fa;stroke:#000000;" />
<circle
r="2.7314816"
cx="191.0945"
cy="128.01437"
style="opacity:1;fill:#ffa5fa;stroke:#000000;" />
<circle
r="2.7314816"
cx="201.0945"
cy="128.01437"
style="opacity:1;fill:#ffa5fa;stroke:#000000;" />
<circle
r="2.7314816"
cx="201.0945"
cy="118.01437"
style="opacity:1;fill:#ffa5fa;stroke:#000000;" />
</g>
</g><g
style="fill:#ffa5fa;"
transform="translate(72.5,5.75)">
<rect
style="fill:#ffa5fa;stroke:#000000;"
width="20"
height="20"
x="185.86807"
y="112.92032"
ry="1.5" />
<g
style="fill:#ffa5fa;"
transform="translate(-0.22642517,-0.09405518)">
<circle
r="2.7314816"
cx="191.0945"
cy="118.01437"
style="opacity:1;fill:#ffa5fa;stroke:#000000;" />
<circle
r="2.7314816"
cx="191.0945"
cy="128.01437"
style="opacity:1;fill:#ffa5fa;stroke:#000000;" />
<circle
r="2.7314816"
cx="201.0945"
cy="128.01437"
style="opacity:1;fill:#ffa5fa;stroke:#000000;" />
<circle
r="2.7314816"
cx="201.0945"
cy="118.01437"
style="opacity:1;fill:#ffa5fa;stroke:#000000;" />
</g>
</g><g
style="fill:#ffa5fa;"
transform="translate(95.5,5.75)">
<rect
style="fill:#ffa5fa;stroke:#000000;"
width="20"
height="20"
x="185.86807"
y="112.92032"
ry="1.5" />
<g
style="fill:#ffa5fa;"
transform="translate(-0.22642517,-0.09405518)">
<circle
r="2.7314816"
cx="191.0945"
cy="118.01437"
style="opacity:1;fill:#ffa5fa;stroke:#000000;" />
<circle
r="2.7314816"
cx="191.0945"
cy="128.01437"
style="opacity:1;fill:#ffa5fa;stroke:#000000;" />
<circle
r="2.7314816"
cx="201.0945"
cy="128.01437"
style="opacity:1;fill:#ffa5fa;stroke:#000000;" />
<circle
r="2.7314816"
cx="201.0945"
cy="118.01437"
style="opacity:1;fill:#ffa5fa;stroke:#000000;" />
</g>
</g><g
style="fill:#ffa5fa;"
transform="translate(49.5,28.75)">
<rect
style="fill:#ffa5fa;stroke:#000000;"
width="20"
height="20"
x="185.86807"
y="112.92032"
ry="1.5" />
<g
style="fill:#ffa5fa;"
transform="translate(-0.22642517,-0.09405518)">
<circle
r="2.7314816"
cx="191.0945"
cy="118.01437"
style="opacity:1;fill:#ffa5fa;stroke:#000000;" />
<circle
r="2.7314816"
cx="191.0945"
cy="128.01437"
style="opacity:1;fill:#ffa5fa;stroke:#000000;" />
<circle
r="2.7314816"
cx="201.0945"
cy="128.01437"
style="opacity:1;fill:#ffa5fa;stroke:#000000;" />
<circle
r="2.7314816"
cx="201.0945"
cy="118.01437"
style="opacity:1;fill:#ffa5fa;stroke:#000000;" />
</g>
</g><g
style="fill:#000000;"
transform="translate(49.5,51.75)">
<rect
style="fill:#000000;stroke:#000000;"
width="20"
height="20"
x="185.86807"
y="112.92032"
ry="1.5" />
<g
style="fill:#000000;"
transform="translate(-0.22642517,-0.09405518)">
<circle
r="2.7314816"
cx="191.0945"
cy="128.01437"
style="fill:#ffffff;stroke:#ffffff;" />
<circle
r="2.7314816"
cx="201.0945"
cy="118.01437"
style="fill:#ffffff;stroke:#ffffff;" />
</g>
</g>
</g>
</g><g
transform="translate(63.0,180.0)">
<g>
<rect
ry="1.4357216"
y="69.390663"
x="186.11467"
height="118.80357"
width="118.80357"
style="fill:#ffffff;stroke:#000000;" />
<text
y="179.25412"
x="288.74234"
style="font-style:normal;font-weight:normal;font-size:14.5px;line-height:125%;font-family:'Noto Sans';fill:#000000;stroke:none;"
xml:space="preserve"><tspan
y="179.25412"
x="288.74234">1</tspan></text>
</g>
<g>
<g
style="fill:#86e291;"
transform="translate(3.5,5.75)">
<rect
style="fill:#86e291;stroke:#000000;"
width="20"
height="20"
x="185.86807"
y="112.92032"
ry="1.5" />
<g
style="fill:#86e291;"
transform="translate(-0.22642517,-0.09405518)">
<circle
r="2.7314816"
cx="191.0945"
cy="118.01437"
style="opacity:1;fill:#86e291;stroke:#000000;" />
<circle
r="2.7314816"
cx="191.0945"
cy="128.01437"
style="opacity:1;fill:#86e291;stroke:#000000;" />
<circle
r="2.7314816"
cx="201.0945"
cy="128.01437"
style="opacity:1;fill:#86e291;stroke:#000000;" />
<circle
r="2.7314816"
cx="201.0945"
cy="118.01437"
style="opacity:1;fill:#86e291;stroke:#000000;" />
</g>
</g><g
style="fill:#86e291;"
transform="translate(26.5,5.75)">
<rect
style="fill:#86e291;stroke:#000000;"
width="20"
height="20"
x="185.86807"
y="112.92032"
ry="1.5" />
<g
style="fill:#86e291;"
transform="translate(-0.22642517,-0.09405518)">
<circle
r="2.7314816"
cx="191.0945"
cy="118.01437"
style="opacity:1;fill:#86e291;stroke:#000000;" />
<circle
r="2.7314816"
cx="191.0945"
cy="128.01437"
style="opacity:1;fill:#86e291;stroke:#000000;" />
<circle
r="2.7314816"
cx="201.0945"
cy="128.01437"
style="opacity:1;fill:#86e291;stroke:#000000;" />
<circle
r="2.7314816"
cx="201.0945"
cy="118.01437"
style="opacity:1;fill:#86e291;stroke:#000000;" />
</g>
</g><g
style="fill:#86e291;"
transform="translate(49.5,5.75)">
<rect
style="fill:#86e291;stroke:#000000;"
width="20"
height="20"
x="185.86807"
y="112.92032"
ry="1.5" />
<g
style="fill:#86e291;"
transform="translate(-0.22642517,-0.09405518)">
<circle
r="2.7314816"
cx="191.0945"
cy="118.01437"
style="opacity:1;fill:#86e291;stroke:#000000;" />
<circle
r="2.7314816"
cx="191.0945"
cy="128.01437"
style="opacity:1;fill:#86e291;stroke:#000000;" />
<circle
r="2.7314816"
cx="201.0945"
cy="128.01437"
style="opacity:1;fill:#86e291;stroke:#000000;" />
<circle
r="2.7314816"
cx="201.0945"
cy="118.01437"
style="opacity:1;fill:#86e291;stroke:#000000;" />
</g>
</g><g
style="fill:#86e291;"
transform="translate(72.5,5.75)">
<rect
style="fill:#86e291;stroke:#000000;"
width="20"
height="20"
x="185.86807"
y="112.92032"
ry="1.5" />
<g
style="fill:#86e291;"
transform="translate(-0.22642517,-0.09405518)">
<circle
r="2.7314816"
cx="191.0945"
cy="118.01437"
style="opacity:1;fill:#86e291;stroke:#000000;" />
<circle
r="2.7314816"
cx="191.0945"
cy="128.01437"
style="opacity:1;fill:#86e291;stroke:#000000;" />
<circle
r="2.7314816"
cx="201.0945"
cy="128.01437"
style="opacity:1;fill:#86e291;stroke:#000000;" />
<circle
r="2.7314816"
cx="201.0945"
cy="118.01437"
style="opacity:1;fill:#86e291;stroke:#000000;" />
</g>
</g><g
style="fill:#86e291;"
transform="translate(95.5,5.75)">
<rect
style="fill:#86e291;stroke:#000000;"
width="20"
height="20"
x="185.86807"
y="112.92032"
ry="1.5" />
<g
style="fill:#86e291;"
transform="translate(-0.22642517,-0.09405518)">
<circle
r="2.7314816"
cx="191.0945"
cy="118.01437"
style="opacity:1;fill:#86e291;stroke:#000000;" />
<circle
r="2.7314816"
cx="191.0945"
cy="128.01437"
style="opacity:1;fill:#86e291;stroke:#000000;" />
<circle
r="2.7314816"
cx="201.0945"
cy="128.01437"
style="opacity:1;fill:#86e291;stroke:#000000;" />
<circle
r="2.7314816"
cx="201.0945"
cy="118.01437"
style="opacity:1;fill:#86e291;stroke:#000000;" />
</g>
</g>
</g>
</g><g
transform="translate(-56.0,180.0)">
<g>
<rect
ry="1.4357216"
y="69.390663"
x="186.11467"
height="118.80357"
width="118.80357"
style="fill:#3f3f3f;stroke:#000000;" />
<text
y="179.25412"
x="288.74234"
style="font-style:normal;font-weight:normal;font-size:14.5px;line-height:125%;font-family:'Noto Sans';fill:#ffffff;stroke:none;"
xml:space="preserve"><tspan
y="179.25412"
x="288.74234">4</tspan></text>
</g>
<g>
<g
style="fill:#ffffff;"
transform="translate(49.5,-40.25)">
<rect
style="fill:#ffffff;stroke:#000000;"
width="20"
height="20"
x="185.86807"
y="112.92032"
ry="1.5" />
<g
style="fill:#ffffff;"
transform="translate(-0.22642517,-0.09405518)">
<circle
r="2.7314816"
cx="191.0945"
cy="118.01437"
style="opacity:1;fill:#ffffff;stroke:#000000;" />
<circle
r="2.7314816"
cx="191.0945"
cy="128.01437"
style="opacity:1;fill:#ffffff;stroke:#000000;" />
<circle
r="2.7314816"
cx="201.0945"
cy="128.01437"
style="opacity:1;fill:#ffffff;stroke:#000000;" />
<circle
r="2.7314816"
cx="201.0945"
cy="118.01437"
style="opacity:1;fill:#ffffff;stroke:#000000;" />
</g>
</g><g
style="fill:#ffffff;"
transform="translate(49.5,-17.25)">
<rect
style="fill:#ffffff;stroke:#000000;"
width="20"
height="20"
x="185.86807"
y="112.92032"
ry="1.5" />
<g
style="fill:#ffffff;"
transform="translate(-0.22642517,-0.09405518)">
<circle
r="2.7314816"
cx="191.0945"
cy="118.01437"
style="opacity:1;fill:#ffffff;stroke:#000000;" />
<circle
r="2.7314816"
cx="191.0945"
cy="128.01437"
style="opacity:1;fill:#ffffff;stroke:#000000;" />
<circle
r="2.7314816"
cx="201.0945"
cy="128.01437"
style="opacity:1;fill:#ffffff;stroke:#000000;" />
<circle
r="2.7314816"
cx="201.0945"
cy="118.01437"
style="opacity:1;fill:#ffffff;stroke:#000000;" />
</g>
</g><g
style="fill:#ffffff;"
transform="translate(3.5,5.75)">
<rect
style="fill:#ffffff;stroke:#000000;"
width="20"
height="20"
x="185.86807"
y="112.92032"
ry="1.5" />
<g
style="fill:#ffffff;"
transform="translate(-0.22642517,-0.09405518)">
<circle
r="2.7314816"
cx="191.0945"
cy="118.01437"
style="opacity:1;fill:#ffffff;stroke:#000000;" />
<circle
r="2.7314816"
cx="191.0945"
cy="128.01437"
style="opacity:1;fill:#ffffff;stroke:#000000;" />
<circle
r="2.7314816"
cx="201.0945"
cy="128.01437"
style="opacity:1;fill:#ffffff;stroke:#000000;" />
<circle
r="2.7314816"
cx="201.0945"
cy="118.01437"
style="opacity:1;fill:#ffffff;stroke:#000000;" />
</g>
</g><g
style="fill:#ffffff;"
transform="translate(26.5,5.75)">
<rect
style="fill:#ffffff;stroke:#000000;"
width="20"
height="20"
x="185.86807"
y="112.92032"
ry="1.5" />
<g
style="fill:#ffffff;"
transform="translate(-0.22642517,-0.09405518)">
<circle
r="2.7314816"
cx="191.0945"
cy="118.01437"
style="opacity:1;fill:#ffffff;stroke:#000000;" />
<circle
r="2.7314816"
cx="191.0945"
cy="128.01437"
style="opacity:1;fill:#ffffff;stroke:#000000;" />
<circle
r="2.7314816"
cx="201.0945"
cy="128.01437"
style="opacity:1;fill:#ffffff;stroke:#000000;" />
<circle
r="2.7314816"
cx="201.0945"
cy="118.01437"
style="opacity:1;fill:#ffffff;stroke:#000000;" />
</g>
</g><g
style="fill:#ffffff;"
transform="translate(49.5,5.75)">
<rect
style="fill:#ffffff;stroke:#000000;"
width="20"
height="20"
x="185.86807"
y="112.92032"
ry="1.5" />
<g
style="fill:#ffffff;"
transform="translate(-0.22642517,-0.09405518)">
<circle
r="2.7314816"
cx="191.0945"
cy="118.01437"
style="opacity:1;fill:#ffffff;stroke:#000000;" />
<circle
r="2.7314816"
cx="191.0945"
cy="128.01437"
style="opacity:1;fill:#ffffff;stroke:#000000;" />
<circle
r="2.7314816"
cx="201.0945"
cy="128.01437"
style="opacity:1;fill:#ffffff;stroke:#000000;" />
<circle
r="2.7314816"
cx="201.0945"
cy="118.01437"
style="opacity:1;fill:#ffffff;stroke:#000000;" />
</g>
</g><g
style="fill:#ffffff;"
transform="translate(72.5,5.75)">
<rect
style="fill:#ffffff;stroke:#000000;"
width="20"
height="20"
x="185.86807"
y="112.92032"
ry="1.5" />
<g
style="fill:#ffffff;"
transform="translate(-0.22642517,-0.09405518)">
<circle
r="2.7314816"
cx="191.0945"
cy="118.01437"
style="opacity:1;fill:#ffffff;stroke:#000000;" />
<circle
r="2.7314816"
cx="191.0945"
cy="128.01437"
style="opacity:1;fill:#ffffff;stroke:#000000;" />
<circle
r="2.7314816"
cx="201.0945"
cy="128.01437"
style="opacity:1;fill:#ffffff;stroke:#000000;" />
<circle
r="2.7314816"
cx="201.0945"
cy="118.01437"
style="opacity:1;fill:#ffffff;stroke:#000000;" />
</g>
</g><g
style="fill:#ffffff;"
transform="translate(95.5,5.75)">
<rect
style="fill:#ffffff;stroke:#000000;"
width="20"
height="20"
x="185.86807"
y="112.92032"
ry="1.5" />
<g
style="fill:#ffffff;"
transform="translate(-0.22642517,-0.09405518)">
<circle
r="2.7314816"
cx="191.0945"
cy="118.01437"
style="opacity:1;fill:#ffffff;stroke:#000000;" />
<circle
r="2.7314816"
cx="191.0945"
cy="128.01437"
style="opacity:1;fill:#ffffff;stroke:#000000;" />
<circle
r="2.7314816"
cx="201.0945"
cy="128.01437"
style="opacity:1;fill:#ffffff;stroke:#000000;" />
<circle
r="2.7314816"
cx="201.0945"
cy="118.01437"
style="opacity:1;fill:#ffffff;stroke:#000000;" />
</g>
</g><g
style="fill:#ffffff;"
transform="translate(49.5,28.75)">
<rect
style="fill:#ffffff;stroke:#000000;"
width="20"
height="20"
x="185.86807"
y="112.92032"
ry="1.5" />
<g
style="fill:#ffffff;"
transform="translate(-0.22642517,-0.09405518)">
<circle
r="2.7314816"
cx="191.0945"
cy="118.01437"
style="opacity:1;fill:#ffffff;stroke:#000000;" />
<circle
r="2.7314816"
cx="191.0945"
cy="128.01437"
style="opacity:1;fill:#ffffff;stroke:#000000;" />
<circle
r="2.7314816"
cx="201.0945"
cy="128.01437"
style="opacity:1;fill:#ffffff;stroke:#000000;" />
<circle
r="2.7314816"
cx="201.0945"
cy="118.01437"
style="opacity:1;fill:#ffffff;stroke:#000000;" />
</g>
</g><g
style="fill:#000000;fill-opacity:1"
transform="translate(49.5,51.75)">
<rect
style="fill:#000000;stroke:#000000;"
width="20"
height="20"
x="185.86807"
y="112.92032"
ry="1.5" />
<g
style="fill:#000000;fill-opacity:1"
transform="translate(-0.22642517,-0.09405518)">
<circle
r="2.7314816"
cx="191.0945"
cy="118.01437"
style="fill:#ffffff;stroke:#ffffff;" />
<circle
r="2.7314816"
cx="201.0945"
cy="128.01437"
style="fill:#ffffff;stroke:#ffffff;" />
</g>
</g>
</g>
</g><g
transform="translate(301.0,61.0)">
<g>
<rect
ry="1.4357216"
y="69.390663"
x="186.11467"
height="118.80357"
width="118.80357"
style="fill:#3f3f3f;stroke:#000000;" />
<text
y="179.25412"
x="288.74234"
style="font-style:normal;font-weight:normal;font-size:14.5px;line-height:125%;font-family:'Noto Sans';fill:#ffffff;stroke:none;"
xml:space="preserve"><tspan
y="179.25412"
x="288.74234">4</tspan></text>
</g>
<g>
<g
style="fill:#ffffff;"
transform="translate(3.5,5.75)">
<rect
style="fill:#ffffff;stroke:#000000;"
width="20"
height="20"
x="185.86807"
y="112.92032"
ry="1.5" />
<g
style="fill:#ffffff;"
transform="translate(-0.22642517,-0.09405518)">
<circle
r="2.7314816"
cx="191.0945"
cy="118.01437"
style="opacity:1;fill:#ffffff;stroke:#000000;" />
<circle
r="2.7314816"
cx="191.0945"
cy="128.01437"
style="opacity:1;fill:#ffffff;stroke:#000000;" />
<circle
r="2.7314816"
cx="201.0945"
cy="128.01437"
style="opacity:1;fill:#ffffff;stroke:#000000;" />
<circle
r="2.7314816"
cx="201.0945"
cy="118.01437"
style="opacity:1;fill:#ffffff;stroke:#000000;" />
</g>
</g><g
style="fill:#ffffff;"
transform="translate(26.5,5.75)">
<rect
style="fill:#ffffff;stroke:#000000;"
width="20"
height="20"
x="185.86807"
y="112.92032"
ry="1.5" />
<g
style="fill:#ffffff;"
transform="translate(-0.22642517,-0.09405518)">
<circle
r="2.7314816"
cx="191.0945"
cy="118.01437"
style="opacity:1;fill:#ffffff;stroke:#000000;" />
<circle
r="2.7314816"
cx="191.0945"
cy="128.01437"
style="opacity:1;fill:#ffffff;stroke:#000000;" />
<circle
r="2.7314816"
cx="201.0945"
cy="128.01437"
style="opacity:1;fill:#ffffff;stroke:#000000;" />
<circle
r="2.7314816"
cx="201.0945"
cy="118.01437"
style="opacity:1;fill:#ffffff;stroke:#000000;" />
</g>
</g><g
style="fill:#008dc8;"
transform="translate(49.5,5.75)">
<rect
style="fill:#008dc8;stroke:#000000;"
width="20"
height="20"
x="185.86807"
y="112.92032"
ry="1.5" />
<g
style="fill:#008dc8;"
transform="translate(-0.22642517,-0.09405518)">
<circle
r="2.7314816"
cx="191.0945"
cy="118.01437"
style="opacity:1;fill:#008dc8;stroke:#000000;" />
<circle
r="2.7314816"
cx="191.0945"
cy="128.01437"
style="opacity:1;fill:#008dc8;stroke:#000000;" />
<circle
r="2.7314816"
cx="201.0945"
cy="128.01437"
style="opacity:1;fill:#008dc8;stroke:#000000;" />
<circle
r="2.7314816"
cx="201.0945"
cy="118.01437"
style="opacity:1;fill:#008dc8;stroke:#000000;" />
</g>
</g>
</g>
</g><g
transform="translate(182.0,61.0)">
<g>
<rect
ry="1.4357216"
y="69.390663"
x="186.11467"
height="118.80357"
width="118.80357"
style="fill:#ffffff;stroke:#000000;" />
<text
y="179.25412"
x="288.74234"
style="font-style:normal;font-weight:normal;font-size:14.5px;line-height:125%;font-family:'Noto Sans';fill:#000000;stroke:none;"
xml:space="preserve"><tspan
y="179.25412"
x="288.74234">1</tspan></text>
</g>
<g>
<g
style="fill:#86e291;"
transform="translate(49.5,-40.25)">
<rect
style="fill:#86e291;stroke:#000000;"
width="20"
height="20"
x="185.86807"
y="112.92032"
ry="1.5" />
<g
style="fill:#86e291;"
transform="translate(-0.22642517,-0.09405518)">
<circle
r="2.7314816"
cx="191.0945"
cy="118.01437"
style="opacity:1;fill:#86e291;stroke:#000000;" />
<circle
r="2.7314816"
cx="191.0945"
cy="128.01437"
style="opacity:1;fill:#86e291;stroke:#000000;" />
<circle
r="2.7314816"
cx="201.0945"
cy="128.01437"
style="opacity:1;fill:#86e291;stroke:#000000;" />
<circle
r="2.7314816"
cx="201.0945"
cy="118.01437"
style="opacity:1;fill:#86e291;stroke:#000000;" />
</g>
</g><g
style="fill:#86e291;"
transform="translate(49.5,-17.25)">
<rect
style="fill:#86e291;stroke:#000000;"
width="20"
height="20"
x="185.86807"
y="112.92032"
ry="1.5" />
<g
style="fill:#86e291;"
transform="translate(-0.22642517,-0.09405518)">
<circle
r="2.7314816"
cx="191.0945"
cy="118.01437"
style="opacity:1;fill:#86e291;stroke:#000000;" />
<circle
r="2.7314816"
cx="191.0945"
cy="128.01437"
style="opacity:1;fill:#86e291;stroke:#000000;" />
<circle
r="2.7314816"
cx="201.0945"
cy="128.01437"
style="opacity:1;fill:#86e291;stroke:#000000;" />
<circle
r="2.7314816"
cx="201.0945"
cy="118.01437"
style="opacity:1;fill:#86e291;stroke:#000000;" />
</g>
</g><g
style="fill:#000000;fill-opacity:1"
transform="translate(3.5,5.75)">
<rect
style="fill:#000000;stroke:#000000;"
width="20"
height="20"
x="185.86807"
y="112.92032"
ry="1.5" />
<g
style="fill:#000000;fill-opacity:1"
transform="translate(-0.22642517,-0.09405518)">
<circle
r="2.7314816"
cx="191.0945"
cy="118.01437"
style="fill:#ffffff;stroke:#ffffff;" />
<circle
r="2.7314816"
cx="201.0945"
cy="128.01437"
style="fill:#ffffff;stroke:#ffffff;" />
</g>
</g><g
style="fill:#86e291;"
transform="translate(26.5,5.75)">
<rect
style="fill:#86e291;stroke:#000000;"
width="20"
height="20"
x="185.86807"
y="112.92032"
ry="1.5" />
<g
style="fill:#86e291;"
transform="translate(-0.22642517,-0.09405518)">
<circle
r="2.7314816"
cx="191.0945"
cy="118.01437"
style="opacity:1;fill:#86e291;stroke:#000000;" />
<circle
r="2.7314816"
cx="191.0945"
cy="128.01437"
style="opacity:1;fill:#86e291;stroke:#000000;" />
<circle
r="2.7314816"
cx="201.0945"
cy="128.01437"
style="opacity:1;fill:#86e291;stroke:#000000;" />
<circle
r="2.7314816"
cx="201.0945"
cy="118.01437"
style="opacity:1;fill:#86e291;stroke:#000000;" />
</g>
</g><g
style="fill:#86e291;"
transform="translate(49.5,5.75)">
<rect
style="fill:#86e291;stroke:#000000;"
width="20"
height="20"
x="185.86807"
y="112.92032"
ry="1.5" />
<g
style="fill:#86e291;"
transform="translate(-0.22642517,-0.09405518)">
<circle
r="2.7314816"
cx="191.0945"
cy="118.01437"
style="opacity:1;fill:#86e291;stroke:#000000;" />
<circle
r="2.7314816"
cx="191.0945"
cy="128.01437"
style="opacity:1;fill:#86e291;stroke:#000000;" />
<circle
r="2.7314816"
cx="201.0945"
cy="128.01437"
style="opacity:1;fill:#86e291;stroke:#000000;" />
<circle
r="2.7314816"
cx="201.0945"
cy="118.01437"
style="opacity:1;fill:#86e291;stroke:#000000;" />
</g>
</g><g
style="fill:#86e291;"
transform="translate(72.5,5.75)">
<rect
style="fill:#86e291;stroke:#000000;"
width="20"
height="20"
x="185.86807"
y="112.92032"
ry="1.5" />
<g
style="fill:#86e291;"
transform="translate(-0.22642517,-0.09405518)">
<circle
r="2.7314816"
cx="191.0945"
cy="118.01437"
style="opacity:1;fill:#86e291;stroke:#000000;" />
<circle
r="2.7314816"
cx="191.0945"
cy="128.01437"
style="opacity:1;fill:#86e291;stroke:#000000;" />
<circle
r="2.7314816"
cx="201.0945"
cy="128.01437"
style="opacity:1;fill:#86e291;stroke:#000000;" />
<circle
r="2.7314816"
cx="201.0945"
cy="118.01437"
style="opacity:1;fill:#86e291;stroke:#000000;" />
</g>
</g><g
style="fill:#86e291;"
transform="translate(95.5,5.75)">
<rect
style="fill:#86e291;stroke:#000000;"
width="20"
height="20"
x="185.86807"
y="112.92032"
ry="1.5" />
<g
style="fill:#86e291;"
transform="translate(-0.22642517,-0.09405518)">
<circle
r="2.7314816"
cx="191.0945"
cy="118.01437"
style="opacity:1;fill:#86e291;stroke:#000000;" />
<circle
r="2.7314816"
cx="191.0945"
cy="128.01437"
style="opacity:1;fill:#86e291;stroke:#000000;" />
<circle
r="2.7314816"
cx="201.0945"
cy="128.01437"
style="opacity:1;fill:#86e291;stroke:#000000;" />
<circle
r="2.7314816"
cx="201.0945"
cy="118.01437"
style="opacity:1;fill:#86e291;stroke:#000000;" />
</g>
</g><g
style="fill:#86e291;"
transform="translate(49.5,28.75)">
<rect
style="fill:#86e291;stroke:#000000;"
width="20"
height="20"
x="185.86807"
y="112.92032"
ry="1.5" />
<g
style="fill:#86e291;"
transform="translate(-0.22642517,-0.09405518)">
<circle
r="2.7314816"
cx="191.0945"
cy="118.01437"
style="opacity:1;fill:#86e291;stroke:#000000;" />
<circle
r="2.7314816"
cx="191.0945"
cy="128.01437"
style="opacity:1;fill:#86e291;stroke:#000000;" />
<circle
r="2.7314816"
cx="201.0945"
cy="128.01437"
style="opacity:1;fill:#86e291;stroke:#000000;" />
<circle
r="2.7314816"
cx="201.0945"
cy="118.01437"
style="opacity:1;fill:#86e291;stroke:#000000;" />
</g>
</g><g
style="fill:#86e291;"
transform="translate(49.5,51.75)">
<rect
style="fill:#86e291;stroke:#000000;"
width="20"
height="20"
x="185.86807"
y="112.92032"
ry="1.5" />
<g
style="fill:#86e291;"
transform="translate(-0.22642517,-0.09405518)">
<circle
r="2.7314816"
cx="191.0945"
cy="118.01437"
style="opacity:1;fill:#86e291;stroke:#000000;" />
<circle
r="2.7314816"
cx="191.0945"
cy="128.01437"
style="opacity:1;fill:#86e291;stroke:#000000;" />
<circle
r="2.7314816"
cx="201.0945"
cy="128.01437"
style="opacity:1;fill:#86e291;stroke:#000000;" />
<circle
r="2.7314816"
cx="201.0945"
cy="118.01437"
style="opacity:1;fill:#86e291;stroke:#000000;" />
</g>
</g>
</g>
</g><g
transform="translate(-175.0,180.0)">
<g>
<rect
ry="1.4357216"
y="69.390663"
x="186.11467"
height="118.80357"
width="118.80357"
style="fill:#7f7f7f;stroke:#000000;" />
<text
y="179.25412"
x="288.74234"
style="font-style:normal;font-weight:normal;font-size:14.5px;line-height:125%;font-family:'Noto Sans';fill:#ffffff;stroke:none;"
xml:space="preserve"><tspan
y="179.25412"
x="288.74234">3</tspan></text>
</g>
<g>
<g
style="fill:#008dc8;"
transform="translate(49.5,5.75)">
<rect
style="fill:#008dc8;stroke:#000000;"
width="20"
height="20"
x="185.86807"
y="112.92032"
ry="1.5" />
<g
style="fill:#008dc8;"
transform="translate(-0.22642517,-0.09405518)">
<circle
r="2.7314816"
cx="191.0945"
cy="118.01437"
style="opacity:1;fill:#008dc8;stroke:#000000;" />
<circle
r="2.7314816"
cx="191.0945"
cy="128.01437"
style="opacity:1;fill:#008dc8;stroke:#000000;" />
<circle
r="2.7314816"
cx="201.0945"
cy="128.01437"
style="opacity:1;fill:#008dc8;stroke:#000000;" />
<circle
r="2.7314816"
cx="201.0945"
cy="118.01437"
style="opacity:1;fill:#008dc8;stroke:#000000;" />
</g>
</g><g
style="fill:#00c8bc;"
transform="translate(72.5,5.75)">
<rect
style="fill:#00c8bc;stroke:#000000;"
width="20"
height="20"
x="185.86807"
y="112.92032"
ry="1.5" />
<g
style="fill:#00c8bc;"
transform="translate(-0.22642517,-0.09405518)">
<circle
r="2.7314816"
cx="191.0945"
cy="118.01437"
style="opacity:1;fill:#00c8bc;stroke:#000000;" />
<circle
r="2.7314816"
cx="191.0945"
cy="128.01437"
style="opacity:1;fill:#00c8bc;stroke:#000000;" />
<circle
r="2.7314816"
cx="201.0945"
cy="128.01437"
style="opacity:1;fill:#00c8bc;stroke:#000000;" />
<circle
r="2.7314816"
cx="201.0945"
cy="118.01437"
style="opacity:1;fill:#00c8bc;stroke:#000000;" />
</g>
</g><g
style="fill:#00c8bc;"
transform="translate(95.5,5.75)">
<rect
style="fill:#00c8bc;stroke:#000000;"
width="20"
height="20"
x="185.86807"
y="112.92032"
ry="1.5" />
<g
style="fill:#00c8bc;"
transform="translate(-0.22642517,-0.09405518)">
<circle
r="2.7314816"
cx="191.0945"
cy="118.01437"
style="opacity:1;fill:#00c8bc;stroke:#000000;" />
<circle
r="2.7314816"
cx="191.0945"
cy="128.01437"
style="opacity:1;fill:#00c8bc;stroke:#000000;" />
<circle
r="2.7314816"
cx="201.0945"
cy="128.01437"
style="opacity:1;fill:#00c8bc;stroke:#000000;" />
<circle
r="2.7314816"
cx="201.0945"
cy="118.01437"
style="opacity:1;fill:#00c8bc;stroke:#000000;" />
</g>
</g>
</g>
</g><g
transform="translate(63.0,61.0)">
<g>
<rect
ry="1.4357216"
y="69.390663"
x="186.11467"
height="118.80357"
width="118.80357"
style="fill:#bfbfbf;stroke:#000000;" />
<text
y="179.25412"
x="288.74234"
style="font-style:normal;font-weight:normal;font-size:14.5px;line-height:125%;font-family:'Noto Sans';fill:#000000;stroke:none;"
xml:space="preserve"><tspan
y="179.25412"
x="288.74234">2</tspan></text>
</g>
<g>

</g>
</g><g
transform="translate(301.0,-58.0)">
<g>
<rect
ry="1.4357216"
y="69.390663"
x="186.11467"
height="118.80357"
width="118.80357"
style="fill:#ffffff;stroke:#000000;" />
<text
y="179.25412"
x="288.74234"
style="font-style:normal;font-weight:normal;font-size:14.5px;line-height:125%;font-family:'Noto Sans';fill:#000000;stroke:none;"
xml:space="preserve"><tspan
y="179.25412"
x="288.74234">1</tspan></text>
</g>
<g>

</g>
</g><g
transform="translate(-56.0,61.0)">
<g>
<rect
ry="1.4357216"
y="69.390663"
x="186.11467"
height="118.80357"
width="118.80357"
style="fill:#7f7f7f;stroke:#000000;" />
<text
y="179.25412"
x="288.74234"
style="font-style:normal;font-weight:normal;font-size:14.5px;line-height:125%;font-family:'Noto Sans';fill:#ffffff;stroke:none;"
xml:space="preserve"><tspan
y="179.25412"
x="288.74234">3</tspan></text>
</g>
<g>
<g
style="fill:#00c8bc;"
transform="translate(49.5,-40.25)">
<rect
style="fill:#00c8bc;stroke:#000000;"
width="20"
height="20"
x="185.86807"
y="112.92032"
ry="1.5" />
<g
style="fill:#00c8bc;"
transform="translate(-0.22642517,-0.09405518)">
<circle
r="2.7314816"
cx="191.0945"
cy="118.01437"
style="opacity:1;fill:#00c8bc;stroke:#000000;" />
<circle
r="2.7314816"
cx="191.0945"
cy="128.01437"
style="opacity:1;fill:#00c8bc;stroke:#000000;" />
<circle
r="2.7314816"
cx="201.0945"
cy="128.01437"
style="opacity:1;fill:#00c8bc;stroke:#000000;" />
<circle
r="2.7314816"
cx="201.0945"
cy="118.01437"
style="opacity:1;fill:#00c8bc;stroke:#000000;" />
</g>
</g><g
style="fill:#00c8bc;"
transform="translate(49.5,-17.25)">
<rect
style="fill:#00c8bc;stroke:#000000;"
width="20"
height="20"
x="185.86807"
y="112.92032"
ry="1.5" />
<g
style="fill:#00c8bc;"
transform="translate(-0.22642517,-0.09405518)">
<circle
r="2.7314816"
cx="191.0945"
cy="118.01437"
style="opacity:1;fill:#00c8bc;stroke:#000000;" />
<circle
r="2.7314816"
cx="191.0945"
cy="128.01437"
style="opacity:1;fill:#00c8bc;stroke:#000000;" />
<circle
r="2.7314816"
cx="201.0945"
cy="128.01437"
style="opacity:1;fill:#00c8bc;stroke:#000000;" />
<circle
r="2.7314816"
cx="201.0945"
cy="118.01437"
style="opacity:1;fill:#00c8bc;stroke:#000000;" />
</g>
</g><g
style="fill:#00c8bc;"
transform="translate(49.5,5.75)">
<rect
style="fill:#00c8bc;stroke:#000000;"
width="20"
height="20"
x="185.86807"
y="112.92032"
ry="1.5" />
<g
style="fill:#00c8bc;"
transform="translate(-0.22642517,-0.09405518)">
<circle
r="2.7314816"
cx="191.0945"
cy="118.01437"
style="opacity:1;fill:#00c8bc;stroke:#000000;" />
<circle
r="2.7314816"
cx="191.0945"
cy="128.01437"
style="opacity:1;fill:#00c8bc;stroke:#000000;" />
<circle
r="2.7314816"
cx="201.0945"
cy="128.01437"
style="opacity:1;fill:#00c8bc;stroke:#000000;" />
<circle
r="2.7314816"
cx="201.0945"
cy="118.01437"
style="opacity:1;fill:#00c8bc;stroke:#000000;" />
</g>
</g><g
style="fill:#00c8bc;"
transform="translate(49.5,28.75)">
<rect
style="fill:#00c8bc;stroke:#000000;"
width="20"
height="20"
x="185.86807"
y="112.92032"
ry="1.5" />
<g
style="fill:#00c8bc;"
transform="translate(-0.22642517,-0.09405518)">
<circle
r="2.7314816"
cx="191.0945"
cy="118.01437"
style="opacity:1;fill:#00c8bc;stroke:#000000;" />
<circle
r="2.7314816"
cx="191.0945"
cy="128.01437"
style="opacity:1;fill:#00c8bc;stroke:#000000;" />
<circle
r="2.7314816"
cx="201.0945"
cy="128.01437"
style="opacity:1;fill:#00c8bc;stroke:#000000;" />
<circle
r="2.7314816"
cx="201.0945"
cy="118.01437"
style="opacity:1;fill:#00c8bc;stroke:#000000;" />
</g>
</g><g
style="fill:#00c8bc;"
transform="translate(49.5,51.75)">
<rect
style="fill:#00c8bc;stroke:#000000;"
width="20"
height="20"
x="185.86807"
y="112.92032"
ry="1.5" />
<g
style="fill:#00c8bc;"
transform="translate(-0.22642517,-0.09405518)">
<circle
r="2.7314816"
cx="191.0945"
cy="118.01437"
style="opacity:1;fill:#00c8bc;stroke:#000000;" />
<circle
r="2.7314816"
cx="191.0945"
cy="128.01437"
style="opacity:1;fill:#00c8bc;stroke:#000000;" />
<circle
r="2.7314816"
cx="201.0945"
cy="128.01437"
style="opacity:1;fill:#00c8bc;stroke:#000000;" />
<circle
r="2.7314816"
cx="201.0945"
cy="118.01437"
style="opacity:1;fill:#00c8bc;stroke:#000000;" />
</g>
</g>
</g>
</g><g
transform="translate(182.0,-58.0)">
<g>
<rect
ry="1.4357216"
y="69.390663"
x="186.11467"
height="118.80357"
width="118.80357"
style="fill:#3f3f3f;stroke:#000000;" />
<text
y="179.25412"
x="288.74234"
style="font-style:normal;font-weight:normal;font-size:14.5px;line-height:125%;font-family:'Noto Sans';fill:#ffffff;stroke:none;"
xml:space="preserve"><tspan
y="179.25412"
x="288.74234">4</tspan></text>
</g>
<g>
<g
style="fill:#ffffff;"
transform="translate(3.5,5.75)">
<rect
style="fill:#ffffff;stroke:#000000;"
width="20"
height="20"
x="185.86807"
y="112.92032"
ry="1.5" />
<g
style="fill:#ffffff;"
transform="translate(-0.22642517,-0.09405518)">
<circle
r="2.7314816"
cx="191.0945"
cy="118.01437"
style="opacity:1;fill:#ffffff;stroke:#000000;" />
<circle
r="2.7314816"
cx="191.0945"
cy="128.01437"
style="opacity:1;fill:#ffffff;stroke:#000000;" />
<circle
r="2.7314816"
cx="201.0945"
cy="128.01437"
style="opacity:1;fill:#ffffff;stroke:#000000;" />
<circle
r="2.7314816"
cx="201.0945"
cy="118.01437"
style="opacity:1;fill:#ffffff;stroke:#000000;" />
</g>
</g><g
style="fill:#ffffff;"
transform="translate(26.5,5.75)">
<rect
style="fill:#ffffff;stroke:#000000;"
width="20"
height="20"
x="185.86807"
y="112.92032"
ry="1.5" />
<g
style="fill:#ffffff;"
transform="translate(-0.22642517,-0.09405518)">
<circle
r="2.7314816"
cx="191.0945"
cy="118.01437"
style="opacity:1;fill:#ffffff;stroke:#000000;" />
<circle
r="2.7314816"
cx="191.0945"
cy="128.01437"
style="opacity:1;fill:#ffffff;stroke:#000000;" />
<circle
r="2.7314816"
cx="201.0945"
cy="128.01437"
style="opacity:1;fill:#ffffff;stroke:#000000;" />
<circle
r="2.7314816"
cx="201.0945"
cy="118.01437"
style="opacity:1;fill:#ffffff;stroke:#000000;" />
</g>
</g><g
style="fill:#ffffff;"
transform="translate(49.5,28.75)">
<rect
style="fill:#ffffff;stroke:#000000;"
width="20"
height="20"
x="185.86807"
y="112.92032"
ry="1.5" />
<g
style="fill:#ffffff;"
transform="translate(-0.22642517,-0.09405518)">
<circle
r="2.7314816"
cx="191.0945"
cy="118.01437"
style="opacity:1;fill:#ffffff;stroke:#000000;" />
<circle
r="2.7314816"
cx="191.0945"
cy="128.01437"
style="opacity:1;fill:#ffffff;stroke:#000000;" />
<circle
r="2.7314816"
cx="201.0945"
cy="128.01437"
style="opacity:1;fill:#ffffff;stroke:#000000;" />
<circle
r="2.7314816"
cx="201.0945"
cy="118.01437"
style="opacity:1;fill:#ffffff;stroke:#000000;" />
</g>
</g><g
style="fill:#ffffff;"
transform="translate(49.5,51.75)">
<rect
style="fill:#ffffff;stroke:#000000;"
width="20"
height="20"
x="185.86807"
y="112.92032"
ry="1.5" />
<g
style="fill:#ffffff;"
transform="translate(-0.22642517,-0.09405518)">
<circle
r="2.7314816"
cx="191.0945"
cy="118.01437"
style="opacity:1;fill:#ffffff;stroke:#000000;" />
<circle
r="2.7314816"
cx="191.0945"
cy="128.01437"
style="opacity:1;fill:#ffffff;stroke:#000000;" />
<circle
r="2.7314816"
cx="201.0945"
cy="128.01437"
style="opacity:1;fill:#ffffff;stroke:#000000;" />
<circle
r="2.7314816"
cx="201.0945"
cy="118.01437"
style="opacity:1;fill:#ffffff;stroke:#000000;" />
</g>
</g>
</g>
</g><g
transform="translate(-175.0,61.0)">
<g>
<rect
ry="1.4357216"
y="69.390663"
x="186.11467"
height="118.80357"
width="118.80357"
style="fill:#3f3f3f;stroke:#000000;" />
<text
y="179.25412"
x="288.74234"
style="font-style:normal;font-weight:normal;font-size:14.5px;line-height:125%;font-family:'Noto Sans';fill:#ffffff;stroke:none;"
xml:space="preserve"><tspan
y="179.25412"
x="288.74234">4</tspan></text>
</g>
<g>

</g>
</g><g
transform="translate(63.0,-58.0)">
<g>
<rect
ry="1.4357216"
y="69.390663"
x="186.11467"
height="118.80357"
width="118.80357"
style="fill:#7f7f7f;stroke:#000000;" />
<text
y="179.25412"
x="288.74234"
style="font-style:normal;font-weight:normal;font-size:14.5px;line-height:125%;font-family:'Noto Sans';fill:#ffffff;stroke:none;"
xml:space="preserve"><tspan
y="179.25412"
x="288.74234">3</tspan></text>
</g>
<g>
<g
style="fill:#00c8bc;"
transform="translate(3.5,5.75)">
<rect
style="fill:#00c8bc;stroke:#000000;"
width="20"
height="20"
x="185.86807"
y="112.92032"
ry="1.5" />
<g
style="fill:#00c8bc;"
transform="translate(-0.22642517,-0.09405518)">
<circle
r="2.7314816"
cx="191.0945"
cy="118.01437"
style="opacity:1;fill:#00c8bc;stroke:#000000;" />
<circle
r="2.7314816"
cx="191.0945"
cy="128.01437"
style="opacity:1;fill:#00c8bc;stroke:#000000;" />
<circle
r="2.7314816"
cx="201.0945"
cy="128.01437"
style="opacity:1;fill:#00c8bc;stroke:#000000;" />
<circle
r="2.7314816"
cx="201.0945"
cy="118.01437"
style="opacity:1;fill:#00c8bc;stroke:#000000;" />
</g>
</g><g
style="fill:#00c8bc;"
transform="translate(26.5,5.75)">
<rect
style="fill:#00c8bc;stroke:#000000;"
width="20"
height="20"
x="185.86807"
y="112.92032"
ry="1.5" />
<g
style="fill:#00c8bc;"
transform="translate(-0.22642517,-0.09405518)">
<circle
r="2.7314816"
cx="191.0945"
cy="118.01437"
style="opacity:1;fill:#00c8bc;stroke:#000000;" />
<circle
r="2.7314816"
cx="191.0945"
cy="128.01437"
style="opacity:1;fill:#00c8bc;stroke:#000000;" />
<circle
r="2.7314816"
cx="201.0945"
cy="128.01437"
style="opacity:1;fill:#00c8bc;stroke:#000000;" />
<circle
r="2.7314816"
cx="201.0945"
cy="118.01437"
style="opacity:1;fill:#00c8bc;stroke:#000000;" />
</g>
</g><g
style="fill:#00c8bc;"
transform="translate(49.5,5.75)">
<rect
style="fill:#00c8bc;stroke:#000000;"
width="20"
height="20"
x="185.86807"
y="112.92032"
ry="1.5" />
<g
style="fill:#00c8bc;"
transform="translate(-0.22642517,-0.09405518)">
<circle
r="2.7314816"
cx="191.0945"
cy="118.01437"
style="opacity:1;fill:#00c8bc;stroke:#000000;" />
<circle
r="2.7314816"
cx="191.0945"
cy="128.01437"
style="opacity:1;fill:#00c8bc;stroke:#000000;" />
<circle
r="2.7314816"
cx="201.0945"
cy="128.01437"
style="opacity:1;fill:#00c8bc;stroke:#000000;" />
<circle
r="2.7314816"
cx="201.0945"
cy="118.01437"
style="opacity:1;fill:#00c8bc;stroke:#000000;" />
</g>
</g><g
style="fill:#00c8bc;"
transform="translate(72.5,5.75)">
<rect
style="fill:#00c8bc;stroke:#000000;"
width="20"
height="20"
x="185.86807"
y="112.92032"
ry="1.5" />
<g
style="fill:#00c8bc;"
transform="translate(-0.22642517,-0.09405518)">
<circle
r="2.7314816"
cx="191.0945"
cy="118.01437"
style="opacity:1;fill:#00c8bc;stroke:#000000;" />
<circle
r="2.7314816"
cx="191.0945"
cy="128.01437"
style="opacity:1;fill:#00c8bc;stroke:#000000;" />
<circle
r="2.7314816"
cx="201.0945"
cy="128.01437"
style="opacity:1;fill:#00c8bc;stroke:#000000;" />
<circle
r="2.7314816"
cx="201.0945"
cy="118.01437"
style="opacity:1;fill:#00c8bc;stroke:#000000;" />
</g>
</g><g
style="fill:#00c8bc;"
transform="translate(95.5,5.75)">
<rect
style="fill:#00c8bc;stroke:#000000;"
width="20"
height="20"
x="185.86807"
y="112.92032"
ry="1.5" />
<g
style="fill:#00c8bc;"
transform="translate(-0.22642517,-0.09405518)">
<circle
r="2.7314816"
cx="191.0945"
cy="118.01437"
style="opacity:1;fill:#00c8bc;stroke:#000000;" />
<circle
r="2.7314816"
cx="191.0945"
cy="128.01437"
style="opacity:1;fill:#00c8bc;stroke:#000000;" />
<circle
r="2.7314816"
cx="201.0945"
cy="128.01437"
style="opacity:1;fill:#00c8bc;stroke:#000000;" />
<circle
r="2.7314816"
cx="201.0945"
cy="118.01437"
style="opacity:1;fill:#00c8bc;stroke:#000000;" />
</g>
</g>
</g>
</g><g
transform="translate(-56.0,-58.0)">
<g>
<rect
ry="1.4357216"
y="69.390663"
x="186.11467"
height="118.80357"
width="118.80357"
style="fill:#bfbfbf;stroke:#000000;" />
<text
y="179.25412"
x="288.74234"
style="font-style:normal;font-weight:normal;font-size:14.5px;line-height:125%;font-family:'Noto Sans';fill:#000000;stroke:none;"
xml:space="preserve"><tspan
y="179.25412"
x="288.74234">2</tspan></text>
</g>
<g>
<g
style="fill:#ffa5fa;"
transform="translate(3.5,5.75)">
<rect
style="fill:#ffa5fa;stroke:#000000;"
width="20"
height="20"
x="185.86807"
y="112.92032"
ry="1.5" />
<g
style="fill:#ffa5fa;"
transform="translate(-0.22642517,-0.09405518)">
<circle
r="2.7314816"
cx="191.0945"
cy="118.01437"
style="opacity:1;fill:#ffa5fa;stroke:#000000;" />
<circle
r="2.7314816"
cx="191.0945"
cy="128.01437"
style="opacity:1;fill:#ffa5fa;stroke:#000000;" />
<circle
r="2.7314816"
cx="201.0945"
cy="128.01437"
style="opacity:1;fill:#ffa5fa;stroke:#000000;" />
<circle
r="2.7314816"
cx="201.0945"
cy="118.01437"
style="opacity:1;fill:#ffa5fa;stroke:#000000;" />
</g>
</g><g
style="fill:#ffa5fa;"
transform="translate(26.5,5.75)">
<rect
style="fill:#ffa5fa;stroke:#000000;"
width="20"
height="20"
x="185.86807"
y="112.92032"
ry="1.5" />
<g
style="fill:#ffa5fa;"
transform="translate(-0.22642517,-0.09405518)">
<circle
r="2.7314816"
cx="191.0945"
cy="118.01437"
style="opacity:1;fill:#ffa5fa;stroke:#000000;" />
<circle
r="2.7314816"
cx="191.0945"
cy="128.01437"
style="opacity:1;fill:#ffa5fa;stroke:#000000;" />
<circle
r="2.7314816"
cx="201.0945"
cy="128.01437"
style="opacity:1;fill:#ffa5fa;stroke:#000000;" />
<circle
r="2.7314816"
cx="201.0945"
cy="118.01437"
style="opacity:1;fill:#ffa5fa;stroke:#000000;" />
</g>
</g><g
style="fill:#ffa5fa;"
transform="translate(49.5,5.75)">
<rect
style="fill:#ffa5fa;stroke:#000000;"
width="20"
height="20"
x="185.86807"
y="112.92032"
ry="1.5" />
<g
style="fill:#ffa5fa;"
transform="translate(-0.22642517,-0.09405518)">
<circle
r="2.7314816"
cx="191.0945"
cy="118.01437"
style="opacity:1;fill:#ffa5fa;stroke:#000000;" />
<circle
r="2.7314816"
cx="191.0945"
cy="128.01437"
style="opacity:1;fill:#ffa5fa;stroke:#000000;" />
<circle
r="2.7314816"
cx="201.0945"
cy="128.01437"
style="opacity:1;fill:#ffa5fa;stroke:#000000;" />
<circle
r="2.7314816"
cx="201.0945"
cy="118.01437"
style="opacity:1;fill:#ffa5fa;stroke:#000000;" />
</g>
</g><g
style="fill:#ffa5fa;"
transform="translate(72.5,5.75)">
<rect
style="fill:#ffa5fa;stroke:#000000;"
width="20"
height="20"
x="185.86807"
y="112.92032"
ry="1.5" />
<g
style="fill:#ffa5fa;"
transform="translate(-0.22642517,-0.09405518)">
<circle
r="2.7314816"
cx="191.0945"
cy="118.01437"
style="opacity:1;fill:#ffa5fa;stroke:#000000;" />
<circle
r="2.7314816"
cx="191.0945"
cy="128.01437"
style="opacity:1;fill:#ffa5fa;stroke:#000000;" />
<circle
r="2.7314816"
cx="201.0945"
cy="128.01437"
style="opacity:1;fill:#ffa5fa;stroke:#000000;" />
<circle
r="2.7314816"
cx="201.0945"
cy="118.01437"
style="opacity:1;fill:#ffa5fa;stroke:#000000;" />
</g>
</g><g
style="fill:#ffa5fa;"
transform="translate(95.5,5.75)">
<rect
style="fill:#ffa5fa;stroke:#000000;"
width="20"
height="20"
x="185.86807"
y="112.92032"
ry="1.5" />
<g
style="fill:#ffa5fa;"
transform="translate(-0.22642517,-0.09405518)">
<circle
r="2.7314816"
cx="191.0945"
cy="118.01437"
style="opacity:1;fill:#ffa5fa;stroke:#000000;" />
<circle
r="2.7314816"
cx="191.0945"
cy="128.01437"
style="opacity:1;fill:#ffa5fa;stroke:#000000;" />
<circle
r="2.7314816"
cx="201.0945"
cy="128.01437"
style="opacity:1;fill:#ffa5fa;stroke:#000000;" />
<circle
r="2.7314816"
cx="201.0945"
cy="118.01437"
style="opacity:1;fill:#ffa5fa;stroke:#000000;" />
</g>
</g><g
style="fill:#ffa5fa;"
transform="translate(49.5,28.75)">
<rect
style="fill:#ffa5fa;stroke:#000000;"
width="20"
height="20"
x="185.86807"
y="112.92032"
ry="1.5" />
<g
style="fill:#ffa5fa;"
transform="translate(-0.22642517,-0.09405518)">
<circle
r="2.7314816"
cx="191.0945"
cy="118.01437"
style="opacity:1;fill:#ffa5fa;stroke:#000000;" />
<circle
r="2.7314816"
cx="191.0945"
cy="128.01437"
style="opacity:1;fill:#ffa5fa;stroke:#000000;" />
<circle
r="2.7314816"
cx="201.0945"
cy="128.01437"
style="opacity:1;fill:#ffa5fa;stroke:#000000;" />
<circle
r="2.7314816"
cx="201.0945"
cy="118.01437"
style="opacity:1;fill:#ffa5fa;stroke:#000000;" />
</g>
</g><g
style="fill:#ffa5fa;"
transform="translate(49.5,51.75)">
<rect
style="fill:#ffa5fa;stroke:#000000;"
width="20"
height="20"
x="185.86807"
y="112.92032"
ry="1.5" />
<g
style="fill:#ffa5fa;"
transform="translate(-0.22642517,-0.09405518)">
<circle
r="2.7314816"
cx="191.0945"
cy="118.01437"
style="opacity:1;fill:#ffa5fa;stroke:#000000;" />
<circle
r="2.7314816"
cx="191.0945"
cy="128.01437"
style="opacity:1;fill:#ffa5fa;stroke:#000000;" />
<circle
r="2.7314816"
cx="201.0945"
cy="128.01437"
style="opacity:1;fill:#ffa5fa;stroke:#000000;" />
<circle
r="2.7314816"
cx="201.0945"
cy="118.01437"
style="opacity:1;fill:#ffa5fa;stroke:#000000;" />
</g>
</g>
</g>
</g><g
transform="translate(-175.0,-58.0)">
<g>
<rect
ry="1.4357216"
y="69.390663"
x="186.11467"
height="118.80357"
width="118.80357"
style="fill:#ffffff;stroke:#000000;" />
<text
y="179.25412"
x="288.74234"
style="font-style:normal;font-weight:normal;font-size:14.5px;line-height:125%;font-family:'Noto Sans';fill:#000000;stroke:none;"
xml:space="preserve"><tspan
y="179.25412"
x="288.74234">1</tspan></text>
</g>
<g>
<g
style="fill:#008dc8;"
transform="translate(49.5,5.75)">
<rect
style="fill:#008dc8;stroke:#000000;"
width="20"
height="20"
x="185.86807"
y="112.92032"
ry="1.5" />
<g
style="fill:#008dc8;"
transform="translate(-0.22642517,-0.09405518)">
<circle
r="2.7314816"
cx="191.0945"
cy="118.01437"
style="opacity:1;fill:#008dc8;stroke:#000000;" />
<circle
r="2.7314816"
cx="191.0945"
cy="128.01437"
style="opacity:1;fill:#008dc8;stroke:#000000;" />
<circle
r="2.7314816"
cx="201.0945"
cy="128.01437"
style="opacity:1;fill:#008dc8;stroke:#000000;" />
<circle
r="2.7314816"
cx="201.0945"
cy="118.01437"
style="opacity:1;fill:#008dc8;stroke:#000000;" />
</g>
</g><g
style="fill:#86e291;"
transform="translate(72.5,5.75)">
<rect
style="fill:#86e291;stroke:#000000;"
width="20"
height="20"
x="185.86807"
y="112.92032"
ry="1.5" />
<g
style="fill:#86e291;"
transform="translate(-0.22642517,-0.09405518)">
<circle
r="2.7314816"
cx="191.0945"
cy="118.01437"
style="opacity:1;fill:#86e291;stroke:#000000;" />
<circle
r="2.7314816"
cx="191.0945"
cy="128.01437"
style="opacity:1;fill:#86e291;stroke:#000000;" />
<circle
r="2.7314816"
cx="201.0945"
cy="128.01437"
style="opacity:1;fill:#86e291;stroke:#000000;" />
<circle
r="2.7314816"
cx="201.0945"
cy="118.01437"
style="opacity:1;fill:#86e291;stroke:#000000;" />
</g>
</g><g
style="fill:#86e291;"
transform="translate(95.5,5.75)">
<rect
style="fill:#86e291;stroke:#000000;"
width="20"
height="20"
x="185.86807"
y="112.92032"
ry="1.5" />
<g
style="fill:#86e291;"
transform="translate(-0.22642517,-0.09405518)">
<circle
r="2.7314816"
cx="191.0945"
cy="118.01437"
style="opacity:1;fill:#86e291;stroke:#000000;" />
<circle
r="2.7314816"
cx="191.0945"
cy="128.01437"
style="opacity:1;fill:#86e291;stroke:#000000;" />
<circle
r="2.7314816"
cx="201.0945"
cy="128.01437"
style="opacity:1;fill:#86e291;stroke:#000000;" />
<circle
r="2.7314816"
cx="201.0945"
cy="118.01437"
style="opacity:1;fill:#86e291;stroke:#000000;" />
</g>
</g>
</g>
</g>
</g>
</svg>